Coordinates
version=1
nRows=8
nColumns=33
inDegrees=yes

Units are S.I. units (second, meters, Newtons, ...)
Angles are in degrees.

endheader
time	ground_thorax_rot_x	ground_thorax_rot_y	ground_thorax_rot_z	ground_thorax_tx	ground_thorax_ty	ground_thorax_tz	clav_prot_r	clav_elev_r	scapula_abduction_r	scapula_elevation_r	scapula_upward_rot_r	scapula_winging_r	shoulder_elv_r	plane_of_elev_r	axial_rot_r	elbow_flexion_r	pro_sup_r	wrist_flex_r	wrist_dev_r	clav_prot_l	clav_elev_l	scapula_abduction_l	scapula_elevation_l	scapula_upward_rot_l	scapula_winging_l	shoulder_elv_l	plane_of_elev_l	axial_rot_l	elbow_flexion_l	pro_sup_l	wrist_flex_l	wrist_dev_l
      4.34000000	    -34.55460195	    -24.72355926	     30.25919535	   -118.11131318	    864.57000027	    -44.59767284	     26.53433380	    -45.00000000	     40.18589328	    -45.00000000	    -45.00000000	   2050.44732124	    258.66055776	    159.55014961	     40.91948884	   2158.89336369	    163.69701035	     16.66735123	     14.26984757	     -2.98431589	     38.00254882	    -35.34367773	    -45.00000000	    -26.70743895	   3699.18871157	  -2980.80493281	    143.57346882	    179.99999979	    359.33383533	    406.68381549	     10.05432531	    -24.99999983
      4.35000000	    -34.45056034	    -24.87727781	     30.54339024	   -117.93604383	    863.93869736	    -44.51430276	     26.33753603	    -45.00000000	     40.25814323	    -45.00000000	    -45.00000000	   2050.44358495	    258.62484772	    159.57531643	     40.79719593	   2158.94446017	    163.61322118	     16.83796354	     14.44824812	     -3.10128923	     38.05218123	    -35.24162732	    -45.00000000	    -27.09522238	   3699.04404228	  -2980.77506952	    143.56692190	    179.99999979	    359.42769166	    406.66151772	      9.88993385	    -24.99999983
      4.36000000	    -34.40952873	    -24.92642249	     30.74755424	   -117.69570656	    863.38187778	    -44.41537825	     26.45867592	    -45.00000000	     40.22330847	    -45.00000000	    -45.00000000	   2050.47946271	    258.60623820	    159.59877468	     40.76980480	   2158.89640330	    163.52669498	     16.81352607	     14.29949625	     -2.97838425	     37.95895605	    -35.25971856	    -45.00000000	    -27.24311230	   3698.98186212	  -2980.78551490	    143.56756973	    179.99999979	    359.51956221	    406.69056992	      9.81012175	    -24.99999983
      4.37000000	    -34.25963665	    -25.19456713	     31.08694186	   -117.38315506	    862.91002308	    -44.30214722	     26.38311090	    -45.00000000	     40.17715833	    -45.00000000	    -45.00000000	   2050.56771467	    258.72942718	    159.53816132	     40.53419030	   2158.95530209	    163.36182952	     16.99795943	     14.32973651	     -3.03253806	     38.03767455	    -35.16069199	    -45.00000000	    -27.43238714	   3698.97008172	  -2980.75563060	    143.63446395	    179.99999979	    359.66150065	    406.68441440	      9.64163213	    -24.99999983
      4.38000000	    -34.33322275	    -25.06719850	     31.04338411	   -116.99117267	    862.52282362	    -44.17783605	     26.50672271	    -45.00000000	     40.28946081	    -45.00000000	    -45.00000000	   2050.48095336	    258.51122438	    159.47406709	     40.51717092	   2158.75263295	    163.26898628	     16.80924881	     14.29938682	     -2.92277551	     37.84435364	    -35.25386165	    -45.00000000	    -27.50695868	   3698.92194582	  -2980.82958882	    143.52562162	    179.99999979	    359.80027288	    406.71880879	      9.66471494	    -24.99999983
      4.39000000	    -34.23819433	    -25.16700876	     31.34843115	   -116.51432956	    862.21878879	    -44.04833087	     26.40216491	    -45.00000000	     40.33301695	    -45.00000000	    -45.00000000	   2050.62923943	    258.50585046	    159.61195940	     40.28942620	   2158.84014043	    163.04624997	     16.97583940	     14.43752984	     -2.97454067	     38.01123274	    -35.18356959	    -45.00000000	    -27.59164427	   3698.83088434	  -2980.80846587	    143.49910909	    179.99999979	    359.85256605	    406.69763836	      9.53808829	    -24.99999983
      4.40000000	    -34.17544405	    -25.26443408	     31.61339225	   -115.94651424	    861.99040989	    -43.92005832	     26.46832808	    -45.00000000	     40.31299485	    -45.00000000	    -45.00000000	   2050.64866504	    258.45210964	    159.54643674	     40.05226179	   2158.83608979	    162.82180511	     16.84609048	     14.28445976	     -2.89677069	     37.86575542	    -35.31321637	    -45.00000000	    -27.67283438	   3698.79701090	  -2980.82631602	    143.56618388	    179.99999979	    359.90785579	    406.67408404	      9.55632503	    -24.99999983
      4.41000000	    -34.11621161	    -25.32000994	     31.79871956	   -115.28168409	    861.82636107	    -43.79933387	     26.34202105	    -45.00000000	     40.21301485	    -45.00000000	    -45.00000000	   2050.85740031	    258.55196841	    159.55994268	     39.79707998	   2158.81644139	    162.57543087	     16.99682068	     14.46237857	     -2.88887008	     38.02911513	    -35.29868826	    -45.00000000	    -27.75390727	   3698.75679780	  -2980.84604344	    143.53789610	    179.99999979	    360.04251214	    406.57703048	      9.47366801	    -24.99999983
